<svg width="17" height="31" viewBox="0 0 17 31" fill="none" xmlns="http://www.w3.org/2000/svg">
<path d="M15.4468 29.6734V6.02916C15.4467 5.77577 15.367 5.52883 15.2189 5.32324C15.0707 5.11766 14.8617 4.96385 14.6214 4.88355L2.55391 0.861045C2.37246 0.800236 2.17913 0.783512 1.98994 0.812258C1.80074 0.841004 1.62111 0.914393 1.46591 1.02635C1.3107 1.13831 1.1844 1.28562 1.09743 1.45609C1.01047 1.62656 0.965359 1.81529 0.965824 2.00665V29.6734" stroke="#A0A3BD" stroke-width="1.6" stroke-linecap="round" stroke-linejoin="round"/>
<path d="M10.6182 22.0535V23.2602" stroke="#A0A3BD" stroke-width="1.6" stroke-linecap="round" stroke-linejoin="round"/>
<path d="M10.6182 16.0197V17.2264" stroke="#A0A3BD" stroke-width="1.6" stroke-linecap="round" stroke-linejoin="round"/>
<path d="M10.6182 9.98584V11.1926" stroke="#A0A3BD" stroke-width="1.6" stroke-linecap="round" stroke-linejoin="round"/>
<path d="M5.79395 22.0535V23.2602" stroke="#A0A3BD" stroke-width="1.6" stroke-linecap="round" stroke-linejoin="round"/>
<path d="M5.79395 16.0197V17.2264" stroke="#A0A3BD" stroke-width="1.6" stroke-linecap="round" stroke-linejoin="round"/>
<path d="M5.79395 9.98584V11.1926" stroke="#A0A3BD" stroke-width="1.6" stroke-linecap="round" stroke-linejoin="round"/>
</svg>
