<svg width="305" height="42" viewBox="0 0 305 42" fill="none" xmlns="http://www.w3.org/2000/svg">
<path d="M62.7062 33.7976V31.2671C64.1522 33.6891 66.8995 34.2313 68.4539 34.2313C73.081 34.2313 77.0213 30.2911 77.0213 24.5073C77.0213 18.9765 73.4786 14.747 68.2732 14.747C66.5019 14.747 64.4775 15.3615 63.2123 17.2774V7.951H56.9224V33.7976H62.7062ZM63.0677 24.435C63.0677 21.8322 64.7306 20.2417 66.9357 20.2417C68.9962 20.2417 70.6952 21.8322 70.6952 24.435C70.6952 27.0377 68.9962 28.7367 66.9357 28.7367C64.7306 28.7367 63.0677 27.0738 63.0677 24.435Z" fill="#170F49"/>
<path d="M92.8384 14.8916C92.5492 14.7832 92.1516 14.747 91.6817 14.747C89.2235 14.747 87.4161 16.0845 86.4401 18.3619V15.1808H80.1863V33.7976H86.4762V26.9654C86.4762 23.0613 88.2475 20.6393 91.4286 20.6393C92.0793 20.6393 92.5492 20.7116 92.8384 20.8562V14.8916Z" fill="#170F49"/>
<path d="M95.2601 33.7976H101.55V15.1808H95.2601V33.7976ZM95.0071 9.97534C95.0071 11.8551 96.453 13.2288 98.3689 13.2288C100.285 13.2288 101.767 11.8551 101.767 9.97534C101.767 8.09559 100.285 6.72193 98.3689 6.72193C96.453 6.72193 95.0071 8.09559 95.0071 9.97534Z" fill="#170F49"/>
<path d="M110.183 24.5796L103.784 33.7976H110.761L113.798 28.8813L116.834 33.7976H123.811L117.412 24.5796L123.955 15.1808H116.798L113.798 20.3501L110.797 15.1808H103.64L110.183 24.5796Z" fill="#170F49"/>
<path d="M131.202 18.8319H133.588V26.2786C133.588 30.6165 136.046 33.0023 140.095 33.0023C141.938 33.0023 143.348 32.6047 144.324 32.1347V26.8208C143.565 27.3631 142.661 27.5077 141.902 27.5077C140.745 27.5077 139.878 26.8208 139.878 25.2303V18.8319H143.818V13.9518H139.878V8.92705H133.769V13.9518H131.202V18.8319Z" fill="#4A3AFF"/>
<path d="M163.661 24.7603C163.842 24.1819 164.023 23.0613 164.023 22.0853C164.023 16.9883 160.408 13.518 155.094 13.518C149.599 13.518 145.406 17.7836 145.406 23.2782C145.406 28.7729 149.491 33.0023 155.853 33.0023C158.998 33.0023 161.456 32.207 163.914 30.0019L160.733 26.0255C159.83 26.8931 158.348 27.7607 156.323 27.7607C154.19 27.7607 152.166 26.857 151.877 24.7603H163.661ZM154.949 18.5065C156.576 18.5065 157.841 19.5187 157.95 21.1093V21.1454H151.768C151.877 19.4464 153.323 18.5065 154.949 18.5065Z" fill="#4A3AFF"/>
<path d="M167.114 13.9518V32.5685H173.404V22.7721C173.404 20.4586 174.597 19.0126 176.369 19.0126C178.248 19.0126 179.261 20.1694 179.261 22.3383V32.5685H185.55V22.7721C185.55 20.4586 186.816 19.0126 188.515 19.0126C190.394 19.0126 191.407 20.1694 191.407 22.3383V32.5685H197.697V21.2177C197.697 16.4099 195.022 13.518 190.503 13.518C187.358 13.518 185.659 14.9278 184.394 16.5545C183.129 14.5663 181.104 13.518 178.357 13.518C176.152 13.518 174.38 14.2771 173.115 16.1569V13.9518H167.114Z" fill="#4A3AFF"/>
<path d="M201.957 39.7983H208.247V30.7611C209.44 32.4962 211.537 33.0023 213.308 33.0023C218.514 33.0023 222.056 28.7729 222.056 23.2421C222.056 17.4582 218.008 13.518 213.38 13.518C211.862 13.518 209.296 14.0602 207.741 16.4822V13.9518H201.957V39.7983ZM208.103 23.3144C208.103 20.6755 209.766 19.0126 211.971 19.0126C214.031 19.0126 215.73 20.7116 215.73 23.3144C215.73 25.9171 214.031 27.5077 211.971 27.5077C209.766 27.5077 208.103 25.9171 208.103 23.3144Z" fill="#4A3AFF"/>
<path d="M225.004 27.0016C225.004 30.9057 227.246 33.0023 231.15 33.0023C232.415 33.0023 233.391 32.7854 234.078 32.4601V27.3992C233.608 27.58 233.174 27.6161 232.849 27.6161C231.403 27.6161 231.294 26.7124 231.294 25.8448V6.72196H225.004V27.0016Z" fill="#4A3AFF"/>
<path d="M241.854 33.0023C244.312 33.0023 245.939 31.9178 246.662 30.508V32.5685H252.482V20.9285C252.482 16.3015 249.301 13.518 243.915 13.518C240.264 13.518 237.263 15.1085 235.673 17.1329L238.962 21.0731C239.938 19.9525 241.457 18.868 243.589 18.868C245.144 18.868 246.481 19.4103 246.481 20.9647V21.0008L241.674 21.9407C237.769 22.7721 235.601 24.6519 235.601 27.3992C235.601 30.6888 238.239 33.0023 241.854 33.0023ZM246.481 24.7965V25.0857C246.481 27.1462 245.325 28.4837 243.336 28.4837C242.216 28.4837 241.601 27.9053 241.601 27.0016C241.601 26.0978 242.324 25.6279 243.445 25.3749L246.481 24.7965Z" fill="#4A3AFF"/>
<path d="M254.723 18.8319H257.109V26.2786C257.109 30.6165 259.567 33.0023 263.616 33.0023C265.459 33.0023 266.869 32.6047 267.845 32.1347V26.8208C267.086 27.3631 266.182 27.5077 265.423 27.5077C264.266 27.5077 263.399 26.8208 263.399 25.2303V18.8319H267.339V13.9518H263.399V8.92705H257.29V13.9518H254.723V18.8319Z" fill="#4A3AFF"/>
<path d="M287.182 24.7603C287.363 24.1819 287.544 23.0613 287.544 22.0853C287.544 16.9883 283.929 13.518 278.615 13.518C273.12 13.518 268.927 17.7836 268.927 23.2782C268.927 28.7729 273.012 33.0023 279.374 33.0023C282.519 33.0023 284.977 32.207 287.435 30.0019L284.254 26.0255C283.351 26.8931 281.868 27.7607 279.844 27.7607C277.711 27.7607 275.687 26.857 275.398 24.7603H287.182ZM278.47 18.5065C280.097 18.5065 281.362 19.5187 281.471 21.1093V21.1454H275.289C275.398 19.4464 276.844 18.5065 278.47 18.5065Z" fill="#4A3AFF"/>
<path d="M297.07 33.0023C301.697 33.0023 304.806 30.4357 304.806 27.11C304.806 23.4228 301.95 22.4468 299.022 21.29C296.383 20.1694 295.263 19.9887 295.263 19.3018C295.263 18.615 296.094 18.2174 297.07 18.2174C298.805 18.2174 299.781 19.0488 300.396 20.0971L304.3 17.2775C303.143 15.0724 300.432 13.518 297.251 13.518C293.057 13.518 289.551 15.5423 289.551 19.2657C289.551 22.266 291.611 23.7482 295.263 25.0495C297.829 25.9532 299.094 26.2786 299.094 27.2546C299.094 27.9414 298.407 28.3029 297.142 28.3029C295.263 28.3029 293.817 27.1462 292.949 25.6641L288.936 28.7367C290.491 31.484 293.6 33.0023 297.07 33.0023Z" fill="#4A3AFF"/>
<path fill-rule="evenodd" clip-rule="evenodd" d="M34.8993 12.4114C38.1409 12.4114 40.7688 9.78357 40.7688 6.54194C40.7688 3.3003 38.1409 0.67244 34.8993 0.67244C31.6576 0.67244 29.0298 3.3003 29.0298 6.54194C29.0298 9.78357 31.6576 12.4114 34.8993 12.4114Z" fill="#8055FA"/>
<path fill-rule="evenodd" clip-rule="evenodd" d="M34.8991 26.4942C38.1407 26.4942 40.7686 23.8667 40.7686 20.6255C40.7686 17.3843 38.1407 14.7568 34.8991 14.7568C31.6574 14.7568 29.0296 17.3843 29.0296 20.6255C29.0296 23.8667 31.6574 26.4942 34.8991 26.4942Z" fill="#7550FB"/>
<path fill-rule="evenodd" clip-rule="evenodd" d="M34.8991 41.1024C38.1407 41.1024 40.7686 38.4745 40.7686 35.2329C40.7686 31.9913 38.1407 29.3634 34.8991 29.3634C31.6574 29.3634 29.0296 31.9913 29.0296 35.2329C29.0296 38.4745 31.6574 41.1024 34.8991 41.1024Z" fill="#6A4AFC"/>
<path fill-rule="evenodd" clip-rule="evenodd" d="M20.2918 26.494C23.533 26.494 26.1605 23.8665 26.1605 20.6253C26.1605 17.3841 23.533 14.7566 20.2918 14.7566C17.0506 14.7566 14.4231 17.3841 14.4231 20.6253C14.4231 23.8665 17.0506 26.494 20.2918 26.494Z" fill="#6045FD"/>
<path fill-rule="evenodd" clip-rule="evenodd" d="M20.2912 41.1023C23.5324 41.1023 26.1599 38.4745 26.1599 35.2328C26.1599 31.9912 23.5324 29.3633 20.2912 29.3633C17.05 29.3633 14.4225 31.9912 14.4225 35.2328C14.4225 38.4745 17.05 41.1023 20.2912 41.1023Z" fill="#553FFE"/>
<path fill-rule="evenodd" clip-rule="evenodd" d="M6.20739 41.1024C9.44903 41.1024 12.0769 38.4746 12.0769 35.2329C12.0769 31.9913 9.44903 29.3634 6.20739 29.3634C2.96575 29.3634 0.337891 31.9913 0.337891 35.2329C0.337891 38.4746 2.96575 41.1024 6.20739 41.1024Z" fill="#4A3AFF"/>
</svg>
