<svg width="17" height="29" viewBox="0 0 17 29" fill="none" xmlns="http://www.w3.org/2000/svg">
<path d="M13.6233 1.23596H3.44935C2.2007 1.23596 1.18848 2.24819 1.18848 3.49683V24.9751C1.18848 26.2237 2.2007 27.236 3.44935 27.236H13.6233C14.8719 27.236 15.8841 26.2237 15.8841 24.9751V3.49683C15.8841 2.24819 14.8719 1.23596 13.6233 1.23596Z" stroke="#4A3AFF" stroke-width="1.6" stroke-linecap="round" stroke-linejoin="round"/>
<path d="M12.2394 1.23596V2.71719C12.2394 3.11004 12.0833 3.48679 11.8056 3.76458C11.5278 4.04236 11.151 4.19842 10.7582 4.19842H6.31448C5.92163 4.19842 5.54488 4.04236 5.26709 3.76458C4.98931 3.48679 4.83325 3.11004 4.83325 2.71719V1.23596" stroke="#4A3AFF" stroke-width="1.6" stroke-linecap="round" stroke-linejoin="round"/>
</svg>
