<svg xmlns="http://www.w3.org/2000/svg" width="41" height="41" viewBox="0 0 41 41" fill="none">
       <path d="M23.6636 3.31615L23.6632 3.31539C23.1112 2.19913 21.9832 1.75384 21.0416 1.75384C20.0997 1.75384 18.9744 2.19873 18.4188 3.30918L18.4187 3.30917L18.415 3.31679L14.0204 12.2268L4.1902 13.6551L4.18991 13.6551C3.1001 13.8137 2.172 14.5751 1.82514 15.6464L1.8244 15.6487C1.48611 16.6995 1.76205 17.8676 2.57106 18.6469L9.68268 25.5806L8.00332 35.3691L8.00211 35.3764C7.82172 36.4602 8.25902 37.5787 9.17245 38.2381C10.0652 38.8826 11.2571 38.9827 12.2514 38.4528C12.2536 38.4516 12.2557 38.4505 12.2579 38.4493L21.0424 33.8352L29.8289 38.4535C29.8297 38.4539 29.8305 38.4543 29.8312 38.4548C30.277 38.6898 30.7486 38.7892 31.1981 38.7892C31.7999 38.7892 32.3951 38.6062 32.9042 38.2438L32.9128 38.2377L32.9213 38.2314C33.8212 37.5714 34.264 36.4666 34.0825 35.3764L34.0813 35.3691L32.4019 25.5806L39.5162 18.6443C40.3224 17.86 40.5925 16.7007 40.2556 15.6522C39.9167 14.5837 38.9871 13.8139 37.8944 13.6551L37.6813 15.1219L37.8944 13.6551L28.0637 12.2267L23.6636 3.31615Z" fill="#EFF0F7" stroke="white" stroke-width="2.96448"/>
</svg>